<svg width="20" height="20" viewBox="0 0 20 20" fill="none" xmlns="http://www.w3.org/2000/svg">
<path fill-rule="evenodd" clip-rule="evenodd" d="M10 2.50004C5.8579 2.50004 2.50004 5.8579 2.50004 10C2.50004 14.1422 5.8579 17.5 10 17.5C14.1422 17.5 17.5 14.1422 17.5 10C17.5 5.8579 14.1422 2.50004 10 2.50004ZM0.833374 10C0.833374 4.93743 4.93743 0.833374 10 0.833374C15.0626 0.833374 19.1667 4.93743 19.1667 10C19.1667 15.0626 15.0626 19.1667 10 19.1667C4.93743 19.1667 0.833374 15.0626 0.833374 10ZM14.3393 6.91078C14.6647 7.23622 14.6647 7.76386 14.3393 8.0893L9.3393 13.0893C9.01386 13.4147 8.48622 13.4147 8.16078 13.0893L5.66078 10.5893C5.33535 10.2639 5.33535 9.73622 5.66078 9.41078C5.98622 9.08535 6.51386 9.08535 6.8393 9.41078L8.75004 11.3215L13.1608 6.91078C13.4862 6.58535 14.0139 6.58535 14.3393 6.91078Z" fill="#129151"/>
</svg>
