<svg width="28" height="28" viewBox="0 0 28 28" fill="none" xmlns="http://www.w3.org/2000/svg">
<circle cx="14" cy="14" r="14" fill="#C4C4C4"/>
<g clip-path="url(#clip0_4163_1437)">
<path d="M15.6022 11.6823L16.3178 12.3978L9.27111 19.4445H8.55556V18.729L15.6022 11.6823ZM18.4022 7.00007C18.1982 7.00101 18.0027 7.08201 17.8578 7.22562L16.4344 8.64896L19.3511 11.5656L20.7744 10.1423C20.8466 10.0703 20.9038 9.98488 20.9428 9.89078C20.9818 9.79669 21.0019 9.69583 21.0019 9.59396C21.0019 9.49209 20.9818 9.39122 20.9428 9.29713C20.9038 9.20304 20.8466 9.11757 20.7744 9.04562L18.9544 7.22562C18.8822 7.1529 18.7961 7.09546 18.7013 7.05671C18.6064 7.01796 18.5047 6.99869 18.4022 7.00007ZM15.6022 9.48118L7 18.0834V21.0001H9.91667L18.5189 12.3978L15.6022 9.48118Z" fill="white"/>
</g>
<defs>
<clipPath id="clip0_4163_1437">
<rect width="14.0019" height="14" fill="white" transform="translate(7 7)"/>
</clipPath>
</defs>
</svg>
