<svg width="20" height="20" viewBox="0 0 20 20" fill="none" xmlns="http://www.w3.org/2000/svg">
<path fill-rule="evenodd" clip-rule="evenodd" d="M10 2.50004C5.8579 2.50004 2.50004 5.8579 2.50004 10C2.50004 14.1422 5.8579 17.5 10 17.5C14.1422 17.5 17.5 14.1422 17.5 10C17.5 5.8579 14.1422 2.50004 10 2.50004ZM0.833374 10C0.833374 4.93743 4.93743 0.833374 10 0.833374C15.0626 0.833374 19.1667 4.93743 19.1667 10C19.1667 15.0626 15.0626 19.1667 10 19.1667C4.93743 19.1667 0.833374 15.0626 0.833374 10ZM10 5.83337C10.4603 5.83337 10.8334 6.20647 10.8334 6.66671V10C10.8334 10.4603 10.4603 10.8334 10 10.8334C9.5398 10.8334 9.16671 10.4603 9.16671 10V6.66671C9.16671 6.20647 9.5398 5.83337 10 5.83337ZM9.16671 13.3334C9.16671 12.8731 9.5398 12.5 10 12.5H10.0084C10.4686 12.5 10.8417 12.8731 10.8417 13.3334C10.8417 13.7936 10.4686 14.1667 10.0084 14.1667H10C9.5398 14.1667 9.16671 13.7936 9.16671 13.3334Z" fill="#B62100"/>
</svg>
